<svg xmlns="http://www.w3.org/2000/svg" width="1em" height="1em" viewBox="0 0 2048 2048"><path fill="white" d="M512 896h384v1152H512zm128 1024h128v-896H640zm384-768h384v896h-384zm128 768h128v-640h-128zM0 1408h384v640H0zm128 512h128v-384H128zM1536 640h384v1408h-384zm128 1280h128V768h-128zM1389 621q19 41 19 83q0 40-15 75t-41 61t-61 41t-75 15t-75-15t-61-41t-41-61t-15-75v-12q0-6 1-12l-188-94q-26 26-61 40t-72 14q-42 0-83-19L365 877q19 41 19 83q0 40-15 75t-41 61t-61 41t-75 15t-75-15t-61-41t-41-61t-15-75t15-75t41-61t61-41t75-15q42 0 83 19l256-256q-19-41-19-83q0-40 15-75t41-61t61-41t75-15t75 15t61 41t41 61t15 75v12q0 6-1 12l188 94q26-26 61-40t72-14q42 0 83 19l256-256q-19-41-19-83q0-40 15-75t41-61t61-41t75-15t75 15t61 41t41 61t15 75t-15 75t-41 61t-61 41t-75 15q-42 0-83-19zM192 1024q26 0 45-19t19-45t-19-45t-45-19t-45 19t-19 45t19 45t45 19m1536-896q-26 0-45 19t-19 45t19 45t45 19t45-19t19-45t-19-45t-45-19M704 512q26 0 45-19t19-45t-19-45t-45-19t-45 19t-19 45t19 45t45 19m512 256q26 0 45-19t19-45t-19-45t-45-19t-45 19t-19 45t19 45t45 19"/></svg>